<?xml version="1.0" encoding="UTF-8"?>
<!DOCTYPE svg PUBLIC "-//W3C//DTD SVG 1.1//EN" "http://www.w3.org/Graphics/SVG/1.1/DTD/svg11.dtd">
<svg xmlns="http://www.w3.org/2000/svg" version="1.1" width="2407px" height="2250px" style="shape-rendering:geometricPrecision; text-rendering:geometricPrecision; image-rendering:optimizeQuality; fill-rule:evenodd; clip-rule:evenodd" xmlns:xlink="http://www.w3.org/1999/xlink">
<g><path style="opacity:0.91" fill="#000000" d="M 2241.5,876.5 C 2268.44,873.375 2286.61,884.375 2296,909.5C 2301.19,944.645 2286.19,964.645 2251,969.5C 2219.11,965.61 2203.78,947.61 2205,915.5C 2209.16,894.848 2221.32,881.848 2241.5,876.5 Z M 2244.5,886.5 C 2266.65,885.316 2280.82,895.316 2287,916.5C 2288.28,937.785 2278.78,951.619 2258.5,958C 2234.81,960.081 2220.31,949.581 2215,926.5C 2214.87,905.729 2224.71,892.396 2244.5,886.5 Z M 2242.5,909.5 C 2247.51,909.334 2252.51,909.501 2257.5,910C 2260.17,912.333 2260.17,914.667 2257.5,917C 2252.51,917.499 2247.51,917.666 2242.5,917.5C 2242.5,914.833 2242.5,912.167 2242.5,909.5 Z"/></g>
<g><path style="opacity:0.925" fill="#000000" d="M 2232.5,899.5 C 2242.17,899.334 2251.84,899.5 2261.5,900C 2271.91,907.268 2272.91,915.601 2264.5,925C 2263.17,925.667 2261.83,926.333 2260.5,927C 2264.7,933.032 2268.7,939.199 2272.5,945.5C 2268.48,946.77 2264.48,946.77 2260.5,945.5C 2256.83,940.167 2253.17,934.833 2249.5,929.5C 2247.49,927.829 2245.16,927.162 2242.5,927.5C 2242.5,933.5 2242.5,939.5 2242.5,945.5C 2239.17,945.5 2235.83,945.5 2232.5,945.5C 2232.5,930.167 2232.5,914.833 2232.5,899.5 Z M 2242.5,909.5 C 2242.5,912.167 2242.5,914.833 2242.5,917.5C 2247.51,917.666 2252.51,917.499 2257.5,917C 2260.17,914.667 2260.17,912.333 2257.5,910C 2252.51,909.501 2247.51,909.334 2242.5,909.5 Z"/></g>
<g><path style="opacity:0.988" fill="#000000" d="M 809.5,922.5 C 868.167,922.5 926.833,922.5 985.5,922.5C 985.5,924.833 985.5,927.167 985.5,929.5C 962.466,928.054 947.966,938.387 942,960.5C 941.5,1011.5 941.333,1062.5 941.5,1113.5C 1003.5,1113.5 1065.5,1113.5 1127.5,1113.5C 1127.98,1061.13 1127.48,1008.8 1126,956.5C 1118.59,937.037 1104.43,928.037 1083.5,929.5C 1083.5,927.167 1083.5,924.833 1083.5,922.5C 1142.17,922.5 1200.83,922.5 1259.5,922.5C 1259.5,924.833 1259.5,927.167 1259.5,929.5C 1243.42,927.351 1230.59,932.684 1221,945.5C 1218.78,949.281 1217.11,953.281 1216,957.5C 1214.85,1013.3 1214.35,1069.14 1214.5,1125C 1214.35,1180.86 1214.85,1236.7 1216,1292.5C 1223.23,1312.87 1237.73,1322.2 1259.5,1320.5C 1259.5,1322.83 1259.5,1325.17 1259.5,1327.5C 1200.83,1327.5 1142.17,1327.5 1083.5,1327.5C 1083.5,1325.17 1083.5,1322.83 1083.5,1320.5C 1104.5,1321.93 1118.66,1312.93 1126,1293.5C 1127.48,1241.87 1127.98,1190.2 1127.5,1138.5C 1065.5,1138.5 1003.5,1138.5 941.5,1138.5C 941.333,1188.83 941.5,1239.17 942,1289.5C 947.918,1311.55 962.418,1321.88 985.5,1320.5C 985.5,1322.83 985.5,1325.17 985.5,1327.5C 926.833,1327.5 868.167,1327.5 809.5,1327.5C 809.5,1325.17 809.5,1322.83 809.5,1320.5C 831.274,1322.19 845.774,1312.86 853,1292.5C 854.15,1236.52 854.65,1180.52 854.5,1124.5C 854.652,1068.81 854.152,1013.14 853,957.5C 845.773,936.965 831.273,927.632 809.5,929.5C 809.5,927.167 809.5,924.833 809.5,922.5 Z"/></g>
<g><path style="opacity:0.96" fill="#000000" d="M 128.5,923.5 C 147.507,924.453 166.507,925.453 185.5,926.5C 184.741,939.187 183.741,951.854 182.5,964.5C 181.325,964.719 180.325,964.386 179.5,963.5C 175.603,944.463 163.769,935.129 144,935.5C 134.948,935.185 126.781,937.685 119.5,943C 108.025,955.727 109.025,967.394 122.5,978C 142.5,991 162.5,1004 182.5,1017C 197.128,1029.55 202.628,1045.38 199,1064.5C 195.743,1082.18 185.91,1094.68 169.5,1102C 143.855,1110.62 118.189,1110.62 92.5,1102C 88.6733,1100.25 85.0066,1098.25 81.5,1096C 79.5125,1094.68 78.3459,1092.85 78,1090.5C 75.9751,1076.46 78.1418,1063.13 84.5,1050.5C 85.6888,1049.57 87.0222,1049.24 88.5,1049.5C 89.0299,1079.2 104.197,1095.2 134,1097.5C 143.684,1097.21 152.517,1094.37 160.5,1089C 170.032,1079.84 171.866,1069.34 166,1057.5C 162.133,1053.3 157.967,1049.47 153.5,1046C 135.833,1034.33 118.167,1022.67 100.5,1011C 79.4926,991.942 75.6593,969.775 89,944.5C 99.0307,931.568 112.197,924.568 128.5,923.5 Z"/></g>
<g><path style="opacity:0.958" fill="#000000" d="M 208.5,930.5 C 215.433,931.986 222.433,933.153 229.5,934C 268.167,934.667 306.833,934.667 345.5,934C 352.567,933.153 359.567,931.986 366.5,930.5C 366.5,944.833 366.5,959.167 366.5,973.5C 365.5,973.5 364.5,973.5 363.5,973.5C 363.796,956.968 355.796,947.802 339.5,946C 328.505,945.5 317.505,945.333 306.5,945.5C 306.333,994.501 306.5,1043.5 307,1092.5C 309.958,1101.4 316.125,1105.4 325.5,1104.5C 325.5,1105.83 325.5,1107.17 325.5,1108.5C 300.167,1108.5 274.833,1108.5 249.5,1108.5C 249.5,1107.17 249.5,1105.83 249.5,1104.5C 258.875,1105.4 265.042,1101.4 268,1092.5C 268.5,1043.5 268.667,994.501 268.5,945.5C 257.495,945.333 246.495,945.5 235.5,946C 219.204,947.802 211.204,956.968 211.5,973.5C 210.5,973.5 209.5,973.5 208.5,973.5C 208.5,959.167 208.5,944.833 208.5,930.5 Z"/></g>
<g><path style="opacity:0.964" fill="#000000" d="M 467.5,930.5 C 474.435,931.987 481.435,933.153 488.5,934C 527.167,934.667 565.833,934.667 604.5,934C 611.567,933.153 618.567,931.986 625.5,930.5C 625.5,944.833 625.5,959.167 625.5,973.5C 624.5,973.5 623.5,973.5 622.5,973.5C 622.811,956.983 614.811,947.816 598.5,946C 587.505,945.5 576.505,945.333 565.5,945.5C 565.333,994.834 565.5,1044.17 566,1093.5C 569.454,1101.65 575.621,1105.31 584.5,1104.5C 584.5,1105.83 584.5,1107.17 584.5,1108.5C 559.167,1108.5 533.833,1108.5 508.5,1108.5C 508.5,1107.17 508.5,1105.83 508.5,1104.5C 517.875,1105.4 524.042,1101.4 527,1092.5C 527.5,1043.5 527.667,994.501 527.5,945.5C 516.162,945.333 504.828,945.5 493.5,946C 477.718,948.288 470.052,957.455 470.5,973.5C 469.5,973.5 468.5,973.5 467.5,973.5C 467.5,959.167 467.5,944.833 467.5,930.5 Z"/></g>
<g><path style="opacity:0.955" fill="#000000" d="M 712.5,931.5 C 738.991,929.359 764.324,933.693 788.5,944.5C 789.499,958.818 789.833,973.151 789.5,987.5C 788.178,987.67 787.011,987.337 786,986.5C 778.12,958.215 759.453,943.548 730,942.5C 696.621,944.872 676.621,962.539 670,995.5C 665.243,1019.44 667.243,1042.77 676,1065.5C 692.209,1095.81 717.043,1106.31 750.5,1097C 764.369,1092.47 774.536,1083.63 781,1070.5C 785.901,1059.3 789.068,1047.63 790.5,1035.5C 791.833,1035.5 793.167,1035.5 794.5,1035.5C 795.038,1050.18 795.538,1064.85 796,1079.5C 782.325,1098.93 763.492,1109.43 739.5,1111C 707.119,1114.66 678.119,1106.66 652.5,1087C 631.619,1065.02 623.119,1038.86 627,1008.5C 631.549,971.951 651.382,948.118 686.5,937C 695.193,934.613 703.86,932.78 712.5,931.5 Z"/></g>
<g><path style="opacity:0.963" fill="#000000" d="M 379.5,934.5 C 404.5,934.5 429.5,934.5 454.5,934.5C 454.5,935.833 454.5,937.167 454.5,938.5C 444.173,937.66 438.006,942.327 436,952.5C 435.333,998.5 435.333,1044.5 436,1090.5C 437.988,1100.65 444.155,1105.32 454.5,1104.5C 454.5,1105.83 454.5,1107.17 454.5,1108.5C 429.5,1108.5 404.5,1108.5 379.5,1108.5C 379.5,1107.17 379.5,1105.83 379.5,1104.5C 387.661,1105.16 393.494,1101.83 397,1094.5C 397.667,1045.83 397.667,997.167 397,948.5C 393.641,940.902 387.807,937.569 379.5,938.5C 379.5,937.167 379.5,935.833 379.5,934.5 Z"/></g>
<g><path style="opacity:0.983" fill="#000000" d="M 1756.5,989.5 C 1782.23,989.066 1806.9,993.899 1830.5,1004C 1847.24,1011.74 1860.58,1023.41 1870.5,1039C 1854.76,1052.29 1838.93,1065.45 1823,1078.5C 1806.6,1055.8 1784.27,1044.8 1756,1045.5C 1699.72,1048.78 1666.05,1078.11 1655,1133.5C 1647.27,1186.4 1669.77,1216.24 1722.5,1223C 1755.19,1225.06 1782.69,1214.23 1805,1190.5C 1817.95,1203.57 1830.78,1216.74 1843.5,1230C 1820.03,1257.74 1790.03,1273.41 1753.5,1277C 1714.5,1282.81 1677.5,1276.81 1642.5,1259C 1604.94,1235.4 1586.61,1201.23 1587.5,1156.5C 1589.83,1077.36 1628.16,1024.53 1702.5,998C 1720.32,993.052 1738.32,990.218 1756.5,989.5 Z"/></g>
<g><path style="opacity:0.985" fill="#000000" d="M 2040.5,989.5 C 2075.99,988.057 2108.32,997.224 2137.5,1017C 2162.32,1036.86 2176.49,1062.7 2180,1094.5C 2185.12,1149.48 2168.29,1196.31 2129.5,1235C 2089.07,1268.8 2042.4,1283.14 1989.5,1278C 1952.55,1275.6 1921.71,1260.77 1897,1233.5C 1879.62,1210.68 1871.45,1184.85 1872.5,1156C 1873.74,1085.8 1905.74,1035.47 1968.5,1005C 1991.68,995.399 2015.68,990.233 2040.5,989.5 Z M 2028.5,1045.5 C 2091.89,1043.38 2120.05,1073.71 2113,1136.5C 2106.57,1173.26 2086.73,1199.76 2053.5,1216C 2024.53,1227.06 1996.2,1225.73 1968.5,1212C 1944.9,1194.91 1935.07,1171.75 1939,1142.5C 1942.6,1102.27 1962.1,1072.77 1997.5,1054C 2007.58,1049.73 2017.91,1046.9 2028.5,1045.5 Z"/></g>
<g><path style="opacity:0.98" fill="#000000" d="M 1383.5,999.5 C 1393.84,999.334 1404.17,999.5 1414.5,1000C 1443.29,1004.79 1457.62,1021.79 1457.5,1051C 1457.49,1072.36 1449.15,1089.69 1432.5,1103C 1428.53,1105.31 1424.87,1107.97 1421.5,1111C 1435.28,1134.07 1449.45,1156.9 1464,1179.5C 1478.99,1152.35 1488.49,1123.35 1492.5,1092.5C 1499.8,1091.5 1507.14,1091.17 1514.5,1091.5C 1513.64,1121.9 1506.14,1150.57 1492,1177.5C 1487.29,1185.77 1482.45,1193.93 1477.5,1202C 1491.09,1224.59 1505.09,1246.92 1519.5,1269C 1492.83,1269.67 1466.17,1269.67 1439.5,1269C 1435.88,1263.58 1432.38,1258.08 1429,1252.5C 1400.29,1275.37 1368.45,1280.87 1333.5,1269C 1311.48,1259.64 1295.31,1244.14 1285,1222.5C 1273.8,1189.78 1281.64,1162.62 1308.5,1141C 1320.36,1132.57 1332.69,1124.9 1345.5,1118C 1335.98,1104.12 1329.14,1088.95 1325,1072.5C 1321.83,1040.34 1334.99,1017.84 1364.5,1005C 1370.83,1002.67 1377.16,1000.84 1383.5,999.5 Z M 1395.5,1021.5 C 1414.74,1018.02 1426.58,1025.69 1431,1044.5C 1433.14,1056.34 1431.14,1067.34 1425,1077.5C 1420.26,1082.91 1414.93,1087.58 1409,1091.5C 1402.67,1081.5 1396.33,1071.5 1390,1061.5C 1384.16,1052.14 1382.49,1042.14 1385,1031.5C 1387.11,1026.56 1390.61,1023.22 1395.5,1021.5 Z M 1357.5,1139.5 C 1359.07,1139.94 1360.24,1140.94 1361,1142.5C 1379.5,1172.33 1398,1202.17 1416.5,1232C 1405.15,1245.83 1391.82,1248.17 1376.5,1239C 1357.3,1222.77 1345.13,1202.27 1340,1177.5C 1337.49,1160.86 1343.32,1148.2 1357.5,1139.5 Z"/></g>
<g><path style="opacity:0.958" fill="#000000" d="M 705.5,1147.5 C 723.487,1148.77 741.487,1149.77 759.5,1150.5C 758.199,1162.81 757.199,1175.14 756.5,1187.5C 755.167,1187.5 753.833,1187.5 752.5,1187.5C 752.053,1173.55 745.053,1164.71 731.5,1161C 718.211,1157.51 705.878,1159.51 694.5,1167C 683.561,1178.06 683.895,1188.73 695.5,1199C 715.662,1212.58 735.996,1225.92 756.5,1239C 770.81,1251.39 775.977,1266.89 772,1285.5C 766.979,1306.19 754.146,1319.36 733.5,1325C 711.909,1329.87 690.576,1328.87 669.5,1322C 654.851,1317.36 649.684,1307.53 654,1292.5C 654.86,1285.09 657.026,1278.09 660.5,1271.5C 661.689,1270.57 663.022,1270.24 664.5,1270.5C 664.01,1295.51 676.01,1310.68 700.5,1316C 712.801,1318.09 724.134,1315.76 734.5,1309C 744.876,1298.74 746.042,1287.57 738,1275.5C 734.167,1272.33 730.333,1269.17 726.5,1266C 707.649,1254.41 689.316,1242.08 671.5,1229C 656.526,1212.67 653.359,1194.17 662,1173.5C 671.817,1157.01 686.317,1148.34 705.5,1147.5 Z"/></g>
<g><path style="opacity:0.974" fill="#000000" d="M 512.5,1151.5 C 537.5,1151.5 562.5,1151.5 587.5,1151.5C 587.5,1152.5 587.5,1153.5 587.5,1154.5C 578.984,1154 573.15,1157.67 570,1165.5C 569.333,1213.83 569.333,1262.17 570,1310.5C 573.15,1318.33 578.984,1322 587.5,1321.5C 587.5,1322.5 587.5,1323.5 587.5,1324.5C 562.5,1324.5 537.5,1324.5 512.5,1324.5C 512.5,1323.5 512.5,1322.5 512.5,1321.5C 522.344,1321.51 528.511,1316.85 531,1307.5C 531.667,1261.17 531.667,1214.83 531,1168.5C 528.511,1159.15 522.344,1154.49 512.5,1154.5C 512.5,1153.5 512.5,1152.5 512.5,1151.5 Z"/></g>
<g><path style="opacity:0.977" fill="#000000" d="M 89.5,1235.5 C 126.167,1235.5 162.833,1235.5 199.5,1235.5C 199.5,1247.17 199.5,1258.83 199.5,1270.5C 162.833,1270.5 126.167,1270.5 89.5,1270.5C 89.5,1258.83 89.5,1247.17 89.5,1235.5 Z"/></g>
<g><path style="opacity:0.97" fill="#000000" d="M 226.5,1235.5 C 263.5,1235.5 300.5,1235.5 337.5,1235.5C 337.5,1247.17 337.5,1258.83 337.5,1270.5C 300.5,1270.5 263.5,1270.5 226.5,1270.5C 226.5,1258.83 226.5,1247.17 226.5,1235.5 Z"/></g>
<g><path style="opacity:0.97" fill="#000000" d="M 364.5,1235.5 C 401.5,1235.5 438.5,1235.5 475.5,1235.5C 475.5,1247.17 475.5,1258.83 475.5,1270.5C 438.5,1270.5 401.5,1270.5 364.5,1270.5C 364.5,1258.83 364.5,1247.17 364.5,1235.5 Z"/></g>
</svg>
